<svg width="21" height="11" viewBox="0 0 21 11" fill="none" xmlns="http://www.w3.org/2000/svg">
<path d="M11.8139 10.8761C11.6884 10.7967 11.6179 10.6891 11.6179 10.5769C11.6179 10.4646 11.6884 10.357 11.8139 10.2776L18.7117 5.9184L0.670231 5.9184C0.492476 5.9184 0.321999 5.87378 0.196306 5.79436C0.070612 5.71494 0 5.60722 0 5.4949C0 5.38259 0.070612 5.27487 0.196306 5.19545C0.321999 5.11603 0.492476 5.07141 0.670231 5.07141L18.7117 5.07141L11.8139 0.712205C11.6956 0.631924 11.6311 0.525741 11.6342 0.416027C11.6372 0.306312 11.7076 0.201632 11.8304 0.12404C11.9532 0.0464474 12.1188 0.00200177 12.2925 6.59794e-05C12.4661 -0.00186981 12.6342 0.0388554 12.7612 0.113662L20.804 5.19563C20.9295 5.27504 21 5.38268 21 5.4949C21 5.60713 20.9295 5.71477 20.804 5.79418L12.7612 10.8761C12.6355 10.9555 12.4652 11 12.2876 11C12.11 11 11.9396 10.9555 11.8139 10.8761Z" fill="#2D82F1"/>
</svg>
