<svg width="318" height="374" viewBox="0 0 318 374" fill="none" xmlns="http://www.w3.org/2000/svg">
<line x1="1.74846e-08" y1="343.68" x2="318" y2="343.68" stroke="white" stroke-opacity="0.45" stroke-width="0.8"/>
<line x1="-1.16824e-08" y1="305.211" x2="318" y2="305.211" stroke="white" stroke-opacity="0.45" stroke-width="0.8"/>
<line x1="-1.16824e-08" y1="266.743" x2="318" y2="266.743" stroke="white" stroke-opacity="0.45" stroke-width="0.8"/>
<line x1="-1.16824e-08" y1="228.274" x2="318" y2="228.274" stroke="white" stroke-opacity="0.45" stroke-width="0.8"/>
<line x1="-1.16824e-08" y1="189.806" x2="318" y2="189.806" stroke="white" stroke-opacity="0.45" stroke-width="0.8"/>
<line x1="-1.16824e-08" y1="151.337" x2="318" y2="151.337" stroke="white" stroke-opacity="0.45" stroke-width="0.8"/>
<line x1="-1.16824e-08" y1="112.869" x2="318" y2="112.869" stroke="white" stroke-opacity="0.45" stroke-width="0.8"/>
<line x1="-1.16824e-08" y1="74.4" x2="318" y2="74.4" stroke="white" stroke-opacity="0.45" stroke-width="0.8"/>
<line x1="-1.16824e-08" y1="35.9314" x2="318" y2="35.9314" stroke="white" stroke-opacity="0.45" stroke-width="0.8"/>
<line x1="288.359" y1="367.589" x2="288.359" y2="-5.23366e-08" stroke="white" stroke-opacity="0.45" stroke-width="0.8"/>
<line x1="222.566" y1="374" x2="222.566" y2="-1.11848e-08" stroke="white" stroke-opacity="0.45" stroke-width="0.8"/>
<line x1="156.772" y1="374" x2="156.772" y2="-1.11848e-08" stroke="white" stroke-opacity="0.45" stroke-width="0.8"/>
<line x1="90.9793" y1="374" x2="90.9794" y2="-1.11848e-08" stroke="white" stroke-opacity="0.45" stroke-width="0.8"/>
<line x1="25.1862" y1="374" x2="25.1863" y2="-1.11848e-08" stroke="white" stroke-opacity="0.45" stroke-width="0.8"/>
</svg>
